<?xml version="1.0" standalone="no"?>
<!DOCTYPE svg PUBLIC "-//W3C//DTD SVG 20010904//EN"
 "http://www.w3.org/TR/2001/REC-SVG-20010904/DTD/svg10.dtd">
<svg version="1.0" xmlns="http://www.w3.org/2000/svg"
 width="720.000000pt" height="415.000000pt" viewBox="0 0 720.000000 415.000000"
 preserveAspectRatio="xMidYMid meet">

<g transform="translate(0.000000,415.000000) scale(0.100000,-0.100000)"
fill="#000000" stroke="none">
<path d="M1592 4129 c-20 -7 -23 -14 -17 -38 4 -20 2 -32 -8 -38 -20 -12 -40
-117 -32 -173 7 -54 54 -133 89 -152 11 -6 35 -12 53 -13 17 0 35 -4 39 -8 4
-4 19 -7 33 -7 32 -1 67 -29 82 -66 6 -16 13 -24 16 -17 5 15 -24 73 -37 73
-21 0 -9 18 20 30 17 7 46 29 65 48 32 33 33 37 19 54 -12 12 -15 27 -10 50
18 99 19 108 5 108 -7 0 -23 -12 -35 -27 l-22 -27 -37 37 c-28 28 -42 36 -60
31 -29 -7 -55 19 -55 58 0 29 1 30 39 23 57 -9 122 3 155 30 l29 23 -94 1
c-52 1 -121 3 -154 6 -33 2 -70 -1 -83 -6z m25 -186 c20 -22 31 -29 24 -16 -6
12 -16 25 -21 28 -6 3 -10 11 -10 18 0 17 24 -11 50 -60 24 -44 19 -73 -6 -39
-14 19 -14 19 -14 -2 0 -25 -27 -30 -36 -7 -4 8 -10 13 -14 10 -20 -12 -40 9
-40 40 0 38 20 96 27 78 2 -7 20 -29 40 -50z m98 17 c3 -5 1 -10 -4 -10 -6 0
-11 5 -11 10 0 6 2 10 4 10 3 0 8 -4 11 -10z m48 -20 c-9 -11 -19 -18 -21 -16
-6 7 22 45 30 40 4 -3 0 -13 -9 -24z"/>
<path d="M1553 3713 c-21 -8 -14 -20 14 -26 35 -7 47 1 32 19 -12 14 -24 16
-46 7z"/>
<path d="M1507 3654 c-35 -35 -43 -62 -23 -82 22 -22 61 -2 82 42 31 63 -9 90
-59 40z m49 -19 c-7 -26 -36 -35 -36 -11 0 16 30 50 37 42 3 -3 3 -17 -1 -31z"/>
<path d="M1715 3670 l-20 -8 20 -7 c11 -4 35 -24 52 -44 25 -27 33 -32 33 -18
0 35 -43 95 -63 86 -1 0 -11 -4 -22 -9z"/>
<path d="M1702 3608 c-45 -48 -48 -116 -6 -132 22 -9 41 8 55 51 9 27 14 32
21 22 8 -11 8 -10 4 4 -3 10 -6 25 -6 32 0 15 -26 45 -39 45 -4 0 -17 -10 -29
-22z m48 -14 c0 -21 -18 -54 -30 -54 -11 0 -14 53 -3 63 12 13 33 7 33 -9z"/>
<path d="M1882 3595 c3 -6 8 -32 9 -60 3 -45 1 -50 -21 -56 l-25 -6 28 -11
c21 -9 27 -18 27 -42 0 -20 -5 -30 -15 -30 -16 0 -31 -60 -21 -85 3 -9 0 -15
-9 -15 -7 0 -20 -6 -27 -12 -39 -37 -100 -63 -162 -71 -27 -4 -55 -12 -63 -18
-10 -9 -30 -4 -88 25 -79 39 -134 92 -166 161 -10 22 -19 33 -19 25 0 -19 36
-88 60 -115 10 -11 15 -26 12 -34 -3 -9 0 -11 7 -7 7 4 28 -4 48 -20 96 -73
250 -92 353 -42 71 35 102 62 137 123 25 44 28 56 21 95 -4 27 -16 52 -29 63
-16 12 -23 32 -27 67 -2 28 -11 55 -20 62 -9 7 -13 8 -10 3z"/>
<path d="M1420 3551 c0 -18 31 -41 55 -41 13 0 31 7 39 16 23 22 20 28 -6 10
-30 -21 -44 -20 -68 4 -11 11 -20 16 -20 11z"/>
<path d="M1761 3516 c-1 -11 -11 -35 -23 -53 -21 -31 -27 -34 -65 -31 -52 4
-43 -9 12 -17 40 -6 40 -6 64 43 13 27 21 56 18 63 -4 9 -6 7 -6 -5z"/>
<path d="M1421 3395 c9 -11 27 -40 39 -65 34 -69 58 -90 100 -90 44 0 77 30
86 79 7 32 6 33 -17 26 -13 -4 -39 -14 -58 -21 -39 -16 -75 -10 -67 12 3 8 0
14 -7 14 -7 0 -30 14 -52 32 -22 18 -33 23 -24 13z"/>
<path d="M2038 3373 c6 -2 18 -2 25 0 6 3 1 5 -13 5 -14 0 -19 -2 -12 -5z"/>
<path d="M1265 3340 c-29 -56 -14 -148 35 -203 19 -23 31 -27 52 -23 33 6 34
-12 2 -30 -20 -11 -84 -24 -84 -18 0 2 12 10 28 19 l27 16 -43 -7 c-40 -6 -43
-4 -56 26 -8 20 -16 28 -20 21 -4 -6 -4 -11 -1 -11 3 0 -5 -10 -20 -22 -18
-16 -27 -36 -29 -64 -4 -37 0 -46 34 -81 21 -23 62 -50 96 -63 32 -13 66 -32
75 -41 68 -68 254 -102 357 -65 51 18 53 15 7 -13 -110 -65 -317 -40 -385 46
l-21 28 5 -34 c3 -18 6 -39 6 -47 0 -7 30 -30 68 -51 63 -36 72 -38 152 -38
70 0 94 5 140 26 65 31 136 100 146 142 4 22 8 26 15 16 5 -8 8 -21 8 -29 0
-11 -2 -11 -6 -2 -3 8 -11 0 -22 -20 -9 -19 -12 -36 -7 -39 26 -19 -73 -105
-154 -135 -58 -21 -175 -21 -225 0 -21 9 -40 14 -43 11 -5 -5 39 -44 51 -45 4
0 7 -23 7 -50 0 -28 6 -66 14 -84 19 -46 76 -87 128 -92 24 -3 57 -7 75 -10
l31 -5 -5 -75 c-6 -71 -5 -75 16 -81 14 -3 21 -13 21 -29 0 -13 -4 -24 -10
-24 -5 0 -7 7 -4 15 4 8 1 15 -5 15 -6 0 -11 -5 -11 -11 0 -5 -4 -8 -9 -4 -6
3 -15 -3 -21 -12 -9 -14 -10 -14 -7 -2 4 13 -3 16 -38 15 -29 -1 -50 5 -63 17
-11 10 -26 20 -34 21 -29 6 -48 19 -42 28 8 13 -14 28 -41 28 -11 0 -33 -11
-50 -25 l-30 -24 28 -1 c16 0 37 -5 48 -11 17 -9 18 -13 7 -27 -11 -13 -11
-15 4 -9 19 7 61 -29 55 -48 -2 -5 5 -19 17 -31 31 -30 32 -48 1 -40 -42 11
-28 -4 29 -29 60 -26 142 -41 178 -32 20 5 26 17 36 65 7 32 12 73 12 90 0 31
13 42 25 22 11 -17 71 -11 98 10 16 13 26 33 29 57 10 82 -44 242 -91 271 -15
8 -21 22 -21 45 0 29 5 35 41 51 46 20 88 73 109 135 11 33 24 48 59 69 l46
27 -47 3 c-38 2 -48 7 -48 21 0 15 8 16 63 13 48 -2 70 1 97 17 19 10 34 24
32 31 -1 6 2 9 7 6 5 -3 17 -3 27 1 15 6 13 9 -12 30 -18 14 -24 23 -14 23 11
1 10 5 -5 18 -14 12 -19 27 -17 52 4 67 1 150 -9 182 -14 51 -12 81 6 74 9 -3
15 0 15 10 0 9 -7 14 -17 12 -14 -3 -19 -15 -21 -63 -4 -68 -25 -104 -91 -149
-38 -26 -46 -28 -107 -23 -71 5 -84 11 -66 29 7 7 12 16 12 22 0 5 -12 -4 -27
-20 -43 -46 -85 -59 -198 -58 -86 0 -108 3 -155 26 -54 25 -94 56 -117 94 -12
17 -12 16 -7 -8 8 -36 -18 -48 -47 -22 -26 23 -73 114 -59 114 6 0 5 9 -2 25
-8 19 -8 31 0 50 16 35 6 31 -13 -5z m884 -257 c-13 -35 -11 -74 5 -105 12
-23 12 -27 -1 -32 -23 -9 -54 34 -50 69 2 17 7 38 12 48 5 13 2 17 -16 18
l-24 2 23 4 c12 3 28 13 35 23 15 26 28 4 16 -27z m-931 -6 c-14 -25 -11 -59
6 -69 33 -22 155 16 191 59 17 20 24 23 46 15 13 -6 31 -17 38 -25 7 -9 20
-13 29 -10 14 4 14 3 3 -5 -8 -6 -12 -19 -8 -31 3 -12 1 -23 -4 -26 -4 -3 -6
-13 -3 -23 5 -13 4 -14 -4 -3 -7 10 -14 11 -28 2 -11 -6 -15 -11 -11 -11 4 0
3 -9 -3 -20 -7 -13 -21 -20 -40 -20 -19 0 -30 -6 -32 -17 -3 -14 -8 -9 -21 16
-18 36 -22 55 -9 48 4 -3 8 9 8 26 1 29 0 29 -23 -17 -20 -40 -27 -46 -46 -40
-30 9 -67 34 -67 45 0 5 -8 9 -18 9 -45 0 -68 113 -24 123 27 6 33 -2 20 -26z
m777 -99 c44 -7 82 -15 85 -18 13 -15 61 -40 77 -41 16 0 16 -1 -2 -9 -11 -5
-50 -9 -88 -9 -54 -1 -75 4 -105 22 -20 13 -50 27 -66 31 -21 5 -26 10 -17 16
11 6 9 10 -5 19 -16 11 -15 11 11 7 17 -3 66 -11 110 -18z m-155 -18 c9 -16 8
-20 -5 -20 -8 0 -15 9 -15 20 0 11 2 20 5 20 2 0 9 -9 15 -20z m-61 -336 c-17
-21 -68 -46 -82 -41 -7 2 4 11 24 20 20 8 40 20 43 26 4 6 12 11 18 11 6 0 5
-6 -3 -16z m-84 -80 c21 -45 11 -56 -46 -52 -43 3 -44 4 -47 40 -3 38 -5 37
64 47 7 0 19 -15 29 -35z"/>
<path d="M1528 3333 c7 -3 16 -2 19 1 4 3 -2 6 -13 5 -11 0 -14 -3 -6 -6z"/>
<path d="M1167 3205 c8 -54 23 -80 20 -35 -2 19 -8 44 -14 55 -10 17 -11 14
-6 -20z"/>
<path d="M2216 3225 c-3 -8 -1 -15 4 -15 6 0 10 -16 10 -35 0 -30 3 -35 24
-35 13 0 35 -9 49 -20 23 -18 25 -18 20 -2 -2 10 5 26 16 36 12 11 21 24 21
30 -1 6 -11 -2 -24 -18 -33 -40 -50 -27 -41 31 8 53 -9 52 -19 -2 -9 -49 -22
-51 -30 -5 -7 42 -21 59 -30 35z"/>
<path d="M1111 3223 c0 -5 4 -17 9 -28 8 -18 9 -17 9 8 1 15 -3 27 -9 27 -5 0
-10 -3 -9 -7z"/>
<path d="M1136 3157 c3 -10 9 -15 12 -12 3 3 0 11 -7 18 -10 9 -11 8 -5 -6z"/>
<path d="M2190 3140 c0 -16 2 -30 4 -30 2 0 6 14 8 30 3 17 1 30 -4 30 -4 0
-8 -13 -8 -30z"/>
<path d="M2221 3114 c-1 -11 11 -31 26 -45 19 -16 22 -17 11 -4 -9 11 -21 32
-27 45 -9 22 -10 23 -10 4z"/>
<path d="M420 2851 c-55 -8 -87 -25 -94 -48 -3 -10 -10 -90 -16 -178 -6 -88
-19 -284 -30 -435 -11 -151 -20 -351 -21 -445 l-1 -170 35 -3 34 -3 6 208 c9
344 53 941 71 969 21 31 65 39 223 39 l131 0 82 -42 c45 -24 84 -43 87 -43 16
0 -96 81 -159 115 -72 39 -74 40 -188 42 -63 1 -135 -2 -160 -6z"/>
<path d="M1065 2673 c103 -125 147 -247 146 -408 -1 -215 -70 -355 -275 -561
-147 -147 -284 -234 -457 -290 -98 -32 -178 -35 -314 -12 -50 8 -92 14 -93 12
-9 -7 10 -40 29 -52 20 -13 148 -37 259 -48 168 -18 477 138 661 333 192 204
259 348 259 560 0 111 -20 194 -70 293 -33 63 -152 215 -182 231 -11 6 6 -20
37 -58z"/>
<path d="M6801 2615 c-18 -13 -41 -36 -50 -52 -36 -61 -137 -286 -211 -470
-77 -192 -77 -193 -59 -215 12 -13 23 -18 29 -12 5 5 34 73 65 152 62 160 174
413 212 483 14 25 41 55 59 67 38 25 42 39 17 58 -23 17 -22 17 -62 -11z"/>
<path d="M3813 2250 c-45 -10 -57 -23 -81 -78 -33 -78 -33 -85 -10 -122 12
-19 24 -42 25 -50 15 -74 14 -88 -11 -143 -31 -71 -13 -65 20 7 25 54 30 91
14 101 -5 3 -10 11 -10 17 0 6 8 4 18 -5 10 -10 32 -17 48 -17 l29 -1 -26 -14
c-23 -13 -54 -67 -73 -131 -4 -13 7 -46 29 -91 19 -39 35 -80 35 -91 0 -28
-29 -93 -53 -119 -11 -13 -17 -23 -13 -23 4 0 19 12 33 28 23 25 25 25 19 5
-8 -26 4 -52 51 -110 30 -37 39 -43 71 -42 l37 2 -33 6 c-23 4 -43 19 -68 50
-48 61 -50 80 -21 145 25 53 63 86 102 86 32 0 77 32 91 66 19 45 24 43 11 -6
-10 -37 -8 -46 26 -114 l38 -73 -21 -54 c-12 -30 -31 -65 -43 -78 l-22 -24 23
12 c30 16 75 106 70 142 -4 26 -3 27 26 23 31 -6 31 -6 6 8 -38 21 -90 95 -90
130 0 17 12 52 26 79 21 38 35 51 68 63 47 16 29 21 -25 6 -25 -7 -40 -19 -51
-42 l-16 -33 5 41 c5 36 1 45 -27 75 l-31 34 26 -42 27 -42 -17 -55 c-24 -74
-47 -94 -122 -102 -67 -7 -79 0 -130 79 -24 38 -24 39 -8 87 22 67 48 96 90
104 50 10 34 26 -25 26 -48 0 -50 1 -90 55 -40 54 -41 57 -29 93 22 69 50 111
80 117 16 4 31 11 34 16 4 5 5 9 3 8 -2 -1 -18 -5 -35 -9z m43 -612 c-10 -18
-11 -18 -15 -1 -1 10 -10 26 -19 36 -16 18 -16 18 14 1 27 -15 30 -21 20 -36z"/>
<path d="M2201 2231 c-19 -34 -33 -301 -29 -554 l3 -247 -57 0 c-32 0 -58 -4
-58 -9 0 -21 34 -33 94 -34 l65 -2 4 370 c3 319 6 377 21 418 10 27 15 55 12
63 -8 20 -44 17 -55 -5z"/>
<path d="M3991 2162 c21 -42 21 -44 4 -90 -10 -26 -24 -57 -31 -69 -9 -14 -10
-23 -4 -23 6 0 13 7 17 16 4 12 9 7 18 -18 6 -19 27 -54 45 -76 32 -40 36 -42
84 -40 l51 1 -47 6 c-39 5 -52 12 -77 45 -42 52 -47 78 -26 131 22 59 43 82
85 94 35 9 35 9 5 9 -42 1 -65 -10 -81 -39 l-13 -24 -1 30 c0 17 -11 43 -25
60 l-25 30 21 -43z"/>
<path d="M4163 2183 c9 -2 25 -2 35 0 9 3 1 5 -18 5 -19 0 -27 -2 -17 -5z"/>
<path d="M4295 2110 c10 -11 20 -20 22 -20 2 0 -2 9 -9 20 -7 11 -17 20 -22
20 -5 0 -1 -9 9 -20z"/>
<path d="M2522 2098 c-5 -7 -12 -23 -16 -35 -3 -13 -9 -32 -12 -43 -4 -17 -1
-20 23 -20 24 0 32 7 47 40 14 32 15 44 6 55 -15 18 -34 19 -48 3z"/>
<path d="M4275 2063 c18 -42 16 -73 -9 -126 -15 -31 -35 -58 -44 -60 -16 -4
-16 -5 0 -6 23 -1 53 40 73 99 15 45 15 51 0 79 -16 33 -32 43 -20 14z"/>
<path d="M3538 2063 c-19 -5 -78 -119 -78 -150 0 -25 75 -130 98 -137 9 -3 31
-1 47 4 l30 10 -31 -4 c-37 -6 -51 4 -93 63 -37 52 -38 66 -9 133 17 41 30 54
62 69 33 15 36 18 16 18 -14 -1 -33 -3 -42 -6z"/>
<path d="M4650 2044 c-6 -14 -10 -27 -10 -30 0 -7 28 -4 57 7 l28 11 -24 19
c-31 25 -40 24 -51 -7z"/>
<path d="M4331 2018 c0 -9 -4 -25 -7 -35 -5 -17 -5 -17 6 0 6 10 9 25 7 35 -4
15 -5 15 -6 0z"/>
<path d="M5715 2007 c-28 -23 -44 -77 -45 -149 0 -39 -19 -58 -59 -58 -38 0
-20 -30 27 -45 13 -4 37 -1 53 5 28 12 29 15 29 77 0 97 31 143 97 143 l28 1
-28 24 c-35 31 -68 32 -102 2z"/>
<path d="M3106 1984 c-26 -25 -20 -44 15 -44 46 0 79 40 43 54 -25 10 -42 7
-58 -10z"/>
<path d="M4750 1980 c-44 -11 -86 -57 -101 -112 -14 -52 -17 -261 -5 -340 l8
-56 -58 1 c-53 2 -59 0 -59 -18 0 -18 9 -21 75 -26 41 -4 79 -3 83 1 5 4 3 33
-3 63 -8 35 -11 102 -8 188 4 111 8 141 26 175 24 47 59 73 108 81 40 7 43 16
12 37 -25 18 -27 18 -78 6z"/>
<path d="M5105 1976 c-36 -16 -93 -72 -107 -106 -16 -36 -23 -332 -10 -369
l11 -31 -48 0 c-55 0 -64 -6 -50 -31 8 -16 21 -19 74 -19 l65 0 -7 58 c-12 86
-8 260 6 319 10 40 23 61 56 92 42 39 60 47 115 53 l24 3 -24 16 c-38 24 -72
29 -105 15z"/>
<path d="M5966 1973 c5 -10 10 -145 12 -300 l3 -283 -39 0 c-42 0 -73 -23 -55
-41 5 -5 38 -9 73 -7 l63 3 1 285 c1 266 0 287 -18 317 -22 35 -55 57 -40 26z"/>
<path d="M1507 1973 c-11 -20 -30 -199 -31 -294 -1 -73 3 -114 13 -132 30 -56
36 -38 38 112 0 87 8 178 17 226 20 100 21 95 -8 95 -14 0 -27 -3 -29 -7z"/>
<path d="M1861 1938 c-13 -26 -11 -507 3 -545 8 -22 6 -23 -54 -23 -53 0 -61
-2 -58 -17 4 -20 36 -31 98 -32 61 -1 76 9 59 40 -10 18 -13 88 -13 270 -1
222 1 249 17 266 22 25 22 40 -2 53 -28 15 -36 13 -50 -12z"/>
<path d="M2536 1937 c-33 -34 -46 -107 -46 -266 0 -109 3 -141 15 -151 8 -6
18 -9 24 -6 5 3 10 68 10 144 2 192 24 255 92 255 35 0 37 10 7 31 -32 23 -75
20 -102 -7z"/>
<path d="M5361 1909 c7 -13 11 -103 12 -250 l2 -229 -46 0 c-30 0 -51 -6 -60
-16 -20 -24 6 -34 85 -31 l70 2 -3 229 c-1 126 -5 236 -8 245 -10 26 -44 71
-54 71 -6 0 -5 -9 2 -21z"/>
<path d="M2783 1897 c8 -13 21 -52 28 -86 29 -150 -28 -300 -130 -341 -39 -16
-121 -16 -150 -1 -43 23 -44 19 -37 -131 4 -79 10 -160 13 -181 l6 -37 -57 6
c-46 6 -56 4 -56 -8 0 -26 22 -35 94 -41 l69 -6 -7 37 c-3 20 -9 102 -13 181
-6 140 -6 144 13 137 37 -15 131 -19 167 -7 41 14 93 68 114 120 46 109 28
292 -35 364 -22 25 -37 21 -19 -6z"/>
<path d="M3106 1835 l-27 -25 2 -189 c1 -103 -1 -193 -5 -199 -4 -7 -24 -10
-51 -7 -49 5 -69 -10 -40 -32 22 -15 142 -18 147 -3 2 6 0 65 -4 133 -11 176
-4 245 28 278 19 19 24 33 19 48 -9 28 -36 26 -69 -4z"/>
<path d="M4300 1856 c0 -2 8 -10 18 -17 15 -13 16 -12 3 4 -13 16 -21 21 -21
13z"/>
<path d="M3285 1821 c-3 -5 -19 -12 -35 -16 -58 -13 -25 -62 34 -51 46 9 61
28 44 55 -13 22 -33 27 -43 12z"/>
<path d="M4355 1786 c10 -14 19 -26 22 -26 7 0 -17 39 -28 46 -6 3 -3 -5 6
-20z"/>
<path d="M4310 1786 c0 -4 7 -21 16 -38 14 -26 14 -38 4 -72 -6 -23 -21 -56
-32 -75 -17 -30 -17 -33 -2 -20 18 15 64 110 64 132 0 7 -11 28 -25 47 -14 19
-25 31 -25 26z"/>
<path d="M3588 1756 c-21 -16 -68 -113 -68 -141 0 -19 33 -74 69 -116 10 -13
27 -18 51 -17 l35 1 -33 4 c-27 4 -39 14 -69 58 -29 45 -34 60 -29 87 11 57
48 110 86 124 l35 12 -30 1 c-16 0 -38 -6 -47 -13z"/>
<path d="M4391 1734 c0 -11 3 -14 6 -6 3 7 2 16 -1 19 -3 4 -6 -2 -5 -13z"/>
<path d="M6403 1683 c-6 -27 -31 -127 -56 -223 -24 -96 -54 -231 -67 -300 -13
-69 -28 -131 -33 -137 -5 -7 -26 -13 -46 -13 -74 0 -106 -26 -62 -49 18 -10
144 -1 157 11 3 3 21 83 39 177 19 95 45 215 59 269 38 151 67 255 73 264 6
11 -26 48 -42 48 -6 0 -16 -21 -22 -47z"/>
<path d="M4371 1673 c-1 -6 -4 -20 -7 -30 -5 -17 -5 -17 6 0 6 10 9 23 6 30
-3 9 -5 9 -5 0z"/>
<path d="M5703 1650 c-51 -23 -87 -74 -72 -102 13 -24 46 -23 54 2 10 31 60
60 125 72 47 9 60 15 60 30 0 15 -9 18 -62 18 -40 0 -78 -7 -105 -20z"/>
<path d="M4335 1590 c-3 -5 -1 -10 4 -10 6 0 11 5 11 10 0 6 -2 10 -4 10 -3 0
-8 -4 -11 -10z"/>
<path d="M4248 1533 c7 -3 16 -2 19 1 4 3 -2 6 -13 5 -11 0 -14 -3 -6 -6z"/>
<path d="M5570 1479 c14 -11 41 -27 60 -36 42 -18 230 -31 230 -15 0 6 3 17 6
26 5 14 -8 16 -107 16 -73 1 -128 6 -154 15 -55 20 -65 18 -35 -6z"/>
<path d="M1430 1472 c0 -28 82 -69 145 -72 100 -6 125 -2 136 27 14 38 1 44
-61 27 -62 -17 -145 -12 -191 11 -16 9 -29 12 -29 7z"/>
<path d="M3710 1386 c0 -2 13 -6 29 -8 17 -2 28 -1 25 4 -5 8 -54 12 -54 4z"/>
<path d="M3796 1347 c3 -10 9 -15 12 -12 3 3 0 11 -7 18 -10 9 -11 8 -5 -6z"/>
<path d="M7106 1305 c-37 -19 -63 -21 -100 -6 -46 19 -41 6 12 -28 56 -35 86
-38 134 -13 18 9 34 18 36 19 2 1 -1 11 -8 22 -13 25 -34 26 -74 6z"/>
<path d="M3696 1235 c3 -11 10 -45 14 -75 l7 -55 1 45 c1 25 -6 59 -14 75 -8
17 -11 21 -8 10z"/>
<path d="M3501 1144 c0 -11 3 -14 6 -6 3 7 2 16 -1 19 -3 4 -6 -2 -5 -13z"/>
</g>
</svg>
